<svg xmlns="http://www.w3.org/2000/svg" width="121" height="52" viewBox="0 0 121 52">
    <g fill="none" fill-rule="evenodd" transform="translate(0 1)">
        <g fill="#4B4B4B" fill-rule="nonzero">
            <path d="M27.202 5.367c.872 0 .861.33.435.908l-1.608 2.191c-.224.302-.629.852.71.852H37.3C36.423 10.522 33.57 14 28.459 14H12.965l6.354-8.633h7.883zm22.145 3.949L45.902 14h-9.088l3.445-4.684h9.088zm13.139 0L59.04 14h-9.084l3.446-4.684h9.083zm-50.46 3.695l-.728.989H0v-.989h12.026zm86.965 0V14H84.3l.726-.989H98.99zm-12.91-3.695l-3.446 4.682H68.046c-3.723 0-4.73-1.796-3.59-3.339.323-.435.986-1.343.986-1.343H86.08zm-72.696 1.847l-.73.994H0v-.994h13.385zm85.606 0v.994H85.654l.733-.994H98.99zm0-1.847v.995H87.015l.73-.995h11.246zm-84.245 0l-.733.993H0v-.993h14.746zM17.408 0l18.24.002c4.633 0 5.815 3.658 4.52 5.417l-2.09 2.838H31.03c-1.339 0-.935-.55-.71-.852.44-.597 1.164-1.612 1.597-2.2.426-.58.437-.908-.435-.908H14.246L17.408 0zm38.794 0L52.72 4.734h4.054L60.26 0h9.084l-6.078 8.255H41.041L47.12 0h9.083zm25.722 0l-6.077 8.255H66.22L72.302 0h9.622zM25.142 27.588c.598 0 1.13-.07 1.595-.209.466-.14.9-.356 1.304-.649l.396-3.195h-2.475l-.094.846c0 .067.023.12.069.163.046.042.11.063.195.063h.88l-.187 1.518c-.209.103-.427.182-.654.24-.228.056-.49.085-.787.085-.304 0-.58-.056-.828-.168-.247-.112-.459-.273-.635-.482-.176-.209-.313-.463-.41-.764-.097-.3-.145-.642-.145-1.023 0-.502.066-.958.198-1.367.132-.409.317-.759.555-1.05.238-.292.523-.517.853-.677.33-.16.693-.239 1.089-.239.201 0 .378.015.53.044.152.03.293.07.421.121.128.051.25.112.363.181.114.07.231.145.352.226.077.051.158.077.242.077.136 0 .253-.064.352-.192l.462-.595c-.132-.146-.282-.286-.45-.418-.17-.131-.36-.247-.573-.346-.213-.099-.45-.177-.715-.234-.264-.057-.557-.085-.88-.085-.403 0-.788.051-1.155.154-.367.103-.709.25-1.026.443-.317.192-.603.425-.858.698-.255.273-.473.58-.654.921-.182.341-.322.713-.42 1.114-.1.402-.15.826-.15 1.273 0 .51.078.98.232 1.411.154.431.373.803.657 1.117.284.313.625.558 1.023.734.398.176.84.264 1.328.264zm7.832 0c.407 0 .795-.052 1.166-.157.37-.104.714-.254 1.03-.448.318-.194.604-.429.859-.704.255-.275.473-.583.654-.924.182-.341.321-.71.418-1.108.097-.398.146-.817.146-1.257 0-.502-.075-.969-.225-1.4-.15-.43-.367-.804-.65-1.119-.282-.315-.625-.563-1.028-.742-.403-.18-.858-.27-1.364-.27-.41 0-.801.052-1.171.157-.37.104-.715.255-1.032.45-.317.197-.603.433-.858.707-.255.276-.473.584-.654.925-.182.34-.321.71-.418 1.108-.097.398-.146.816-.146 1.256 0 .503.075.968.226 1.397.15.43.367.802.651 1.117.284.315.628.563 1.032.742.403.18.858.27 1.364.27zm.16-1.183c-.313 0-.59-.055-.834-.167-.244-.112-.45-.272-.619-.479-.169-.207-.297-.457-.385-.75-.088-.294-.132-.62-.132-.98 0-.51.063-.973.19-1.391.126-.418.305-.776.536-1.073.231-.297.509-.526.833-.687.325-.161.685-.242 1.081-.242.308 0 .585.057.83.17.246.114.454.275.625.485.17.209.3.46.39.753.09.293.135.62.135.979 0 .513-.063.978-.19 1.394-.126.416-.305.771-.536 1.064-.23.294-.51.521-.836.682-.326.162-.69.242-1.089.242zm10.982 1.183c.597 0 1.129-.07 1.595-.209.465-.14.9-.356 1.303-.649l.396-3.195h-2.475l-.093.846c0 .067.022.12.068.163.046.042.111.063.196.063h.88l-.187 1.518c-.21.103-.428.182-.655.24-.227.056-.49.085-.786.085-.305 0-.58-.056-.828-.168-.248-.112-.46-.273-.635-.482-.176-.209-.313-.463-.41-.764-.097-.3-.146-.642-.146-1.023 0-.502.066-.958.198-1.367.132-.409.317-.759.556-1.05.238-.292.522-.517.852-.677.33-.16.693-.239 1.09-.239.2 0 .378.015.53.044.152.03.292.07.42.121.129.051.25.112.364.181.113.07.23.145.352.226.077.051.157.077.242.077.135 0 .253-.064.352-.192l.462-.595c-.132-.146-.283-.286-.451-.418-.17-.131-.36-.247-.572-.346-.213-.099-.451-.177-.715-.234-.264-.057-.558-.085-.88-.085-.404 0-.789.051-1.155.154-.367.103-.709.25-1.026.443-.317.192-.603.425-.858.698-.255.273-.473.58-.655.921-.181.341-.321.713-.42 1.114-.1.402-.149.826-.149 1.273 0 .51.077.98.231 1.411.154.431.373.803.657 1.117.284.313.625.558 1.023.734.398.176.84.264 1.329.264zm5.994-.088l.385-3.135h.561c.136 0 .236.021.3.063.064.042.118.111.162.206l1.166 2.58c.04.092.102.162.184.212.083.05.185.074.306.074h1.281l-1.419-2.965c-.051-.102-.112-.19-.181-.264-.07-.073-.147-.135-.231-.187.297-.091.562-.22.797-.384.235-.165.433-.358.594-.578.161-.22.285-.465.371-.734.086-.27.13-.559.13-.867 0-.29-.05-.555-.149-.797-.099-.242-.253-.45-.462-.624-.209-.174-.477-.31-.803-.407-.326-.097-.719-.146-1.177-.146h-2.26L48.69 27.5h1.42zm1.337-4.152h-.825l.335-2.701h.836c.444 0 .772.097.985.292.212.194.319.463.319.808 0 .224-.033.433-.1.627-.065.194-.165.364-.3.509-.133.145-.304.258-.51.34-.208.083-.454.125-.74.125zm8.997 4.152l.143-1.139h-3.212l.286-2.32h2.514l.137-1.095H57.8l.275-2.26h3.2l.144-1.139H56.78l-.979 7.953h4.642zm6.28 0l.144-1.139h-3.212l.286-2.32h2.513l.138-1.095h-2.514l.275-2.26h3.201l.143-1.139h-4.636l-.98 7.953h4.643zm2.899 0l.627-5.186.022-.234.022-.256 3.08 5.428c.05.096.115.16.192.196.077.035.17.052.28.052h.732l.985-7.953h-1.26l-.621 5.066c-.011.088-.022.182-.03.283-.01.1-.018.204-.025.31l-3.097-5.428c-.03-.051-.057-.092-.082-.121-.026-.03-.055-.052-.088-.069-.033-.016-.071-.027-.113-.033-.042-.005-.095-.008-.157-.008h-.748l-.979 7.953h1.26z" transform="translate(11.004 11.206)"/>
        </g>
    </g>
</svg>
